<?xml version="1.0" encoding="UTF-8" standalone="no"?><!DOCTYPE svg PUBLIC "-//W3C//DTD SVG 1.1//EN" "http://www.w3.org/Graphics/SVG/1.1/DTD/svg11.dtd"><svg width="100%" height="100%" viewBox="0 0 1668 1668" version="1.1" xmlns="http://www.w3.org/2000/svg" xmlns:xlink="http://www.w3.org/1999/xlink" xml:space="preserve" xmlns:serif="http://www.serif.com/" style="fill-rule:evenodd;clip-rule:evenodd;stroke-linecap:round;stroke-linejoin:round;stroke-miterlimit:1.5;"><rect id="_66-checklist" serif:id="66-checklist" x="0.377" y="0.529" width="1666.67" height="1666.67" style="fill:none;"/><g id="Fill"></g><g id="Mid-layer" serif:id="Mid layer"></g><g id="Top-layer" serif:id="Top layer"></g><g id="Ref"></g><rect x="360.987" y="344.985" width="945.447" height="1158.86" style="fill:#def1ec;stroke:#000;stroke-width:16.67px;"/><rect x="436.737" y="473.568" width="793.946" height="943.412" style="fill:#fff;stroke:#000;stroke-width:16.67px;"/><path d="M734.076,658.002l356.216,0" style="fill:none;stroke:#000;stroke-width:16.67px;"/><path d="M734.076,886.7l356.216,-0" style="fill:none;stroke:#000;stroke-width:16.67px;"/><path d="M734.076,1107.88l356.216,-0" style="fill:none;stroke:#000;stroke-width:16.67px;"/><path d="M734.076,704.765l228.139,-0" style="fill:none;stroke:#000;stroke-width:16.67px;"/><path d="M734.076,933.462l228.139,0" style="fill:none;stroke:#000;stroke-width:16.67px;"/><path d="M734.076,1154.64l228.139,0" style="fill:none;stroke:#000;stroke-width:16.67px;"/><path d="M923.893,279.414l96.31,0l-0,131.142l-372.985,0l0,-131.142l96.311,0c-2.981,-9.2 -4.592,-19.015 -4.592,-29.203c-0,-52.307 42.466,-94.774 94.774,-94.774c52.307,0 94.774,42.467 94.774,94.774c-0,10.188 -1.611,20.003 -4.592,29.203Z" style="fill:#5cba9e;stroke:#000;stroke-width:16.67px;"/><path d="M577.129,681.383l35.192,35.193l70.385,-70.385" style="fill:none;fill-rule:nonzero;stroke:#5cba9e;stroke-width:16.67px;stroke-miterlimit:4;"/><path d="M577.129,910.081l35.192,35.193l70.385,-70.385" style="fill:none;fill-rule:nonzero;stroke:#5cba9e;stroke-width:16.67px;stroke-miterlimit:4;"/><path d="M577.129,1131.26l35.192,35.192l70.385,-70.385" style="fill:none;fill-rule:nonzero;stroke:#5cba9e;stroke-width:16.67px;stroke-miterlimit:4;"/></svg>