<?xml version="1.0" encoding="UTF-8" standalone="no"?><!DOCTYPE svg PUBLIC "-//W3C//DTD SVG 1.1//EN" "http://www.w3.org/Graphics/SVG/1.1/DTD/svg11.dtd"><svg width="100%" height="100%" viewBox="0 0 1668 1668" version="1.1" xmlns="http://www.w3.org/2000/svg" xmlns:xlink="http://www.w3.org/1999/xlink" xml:space="preserve" xmlns:serif="http://www.serif.com/" style="fill-rule:evenodd;clip-rule:evenodd;stroke-linecap:round;stroke-linejoin:round;stroke-miterlimit:1.5;"><rect id="_94-account-holder-needed" serif:id="94-account-holder-needed" x="0.978" y="0.756" width="1666.67" height="1666.67" style="fill:none;"/><g id="Fill"></g><g id="Mid-layer" serif:id="Mid layer"></g><g id="Top-layer" serif:id="Top layer"></g><g id="Ref"></g><g><path d="M467.537,1274.02c-161.089,-99.94 -268.457,-278.407 -268.457,-481.752c-0,-312.668 253.846,-566.515 566.514,-566.515c312.668,0 566.514,253.847 566.514,566.515c0,203.345 -107.368,381.812 -268.457,481.752c-86.604,53.729 -188.735,84.762 -298.057,84.762c-109.322,-0 -211.453,-31.033 -298.057,-84.762Z" style="fill:#bee3fb;stroke:#000;stroke-width:16.67px;"/><path d="M765.594,1358.79c-109.322,-0 -211.453,-31.033 -298.057,-84.762c-18.065,-11.208 -35.455,-23.403 -52.093,-36.51l-0,-81.507c-0,-99.165 132.482,-179.554 231.647,-179.554l237.006,0c99.165,0 231.647,80.389 231.647,179.554l-0,81.507c-16.638,13.107 -34.028,25.302 -52.093,36.51c-86.604,53.729 -188.735,84.762 -298.057,84.762Z" style="fill:#bee3d8;stroke:#000;stroke-width:16.67px;"/><path d="M685.55,909.071l0,67.381l81.662,334.21l81.662,-334.21l0,-67.381l-163.324,0Z" style="fill:#dadada;stroke:#000;stroke-width:16.67px;"/><path d="M570.836,749.514c-26.727,-0 -48.426,-27.02 -48.426,-60.301c0,-33.281 21.699,-60.3 48.426,-60.3" style="fill:#dadada;stroke:#000;stroke-width:16.67px;"/><path d="M960.352,628.913c26.727,-0 48.426,27.019 48.426,60.3c-0,33.281 -21.699,60.301 -48.426,60.301" style="fill:#dadada;stroke:#000;stroke-width:16.67px;"/><path d="M765.595,363.114c107.561,0 194.757,87.196 194.757,194.757c-0,57.34 -0,120.066 -0,177.406c-0,107.561 -87.196,194.757 -194.757,194.757c-0.001,-0 -0.001,-0 -0.002,-0c-107.561,-0 -194.757,-87.196 -194.757,-194.757c0,-57.34 0,-120.066 0,-177.406c0,-107.561 87.196,-194.757 194.757,-194.757l0.002,0Z" style="fill:#dadada;stroke:#000;stroke-width:16.67px;"/><path d="M570.836,628.913l0,-71.041c0,-107.562 87.196,-194.758 194.758,-194.758c107.562,0 194.758,87.196 194.758,194.758l-0,78.289l-82.105,-80.596l-224.158,-0l-83.253,73.348Z" style="stroke:#000;stroke-width:16.67px;"/><ellipse cx="838.514" cy="705.062" rx="10.361" ry="22.684" style="stroke:#000;stroke-width:16.67px;"/><ellipse cx="692.674" cy="705.062" rx="10.361" ry="22.684" style="stroke:#000;stroke-width:16.67px;"/><path d="M703.035,818.749c0,-0 63.665,54.741 125.118,-0" style="fill:none;stroke:#000;stroke-width:16.67px;"/><path d="M570.836,628.913l83.253,-73.348l224.158,-0l82.105,80.596" style="fill:none;stroke:#000;stroke-width:16.67px;"/><path d="M848.874,976.452l-81.662,24.623l-81.662,-24.623l81.662,334.21l81.662,-334.21Z" style="fill:#fff;stroke:#000;stroke-width:16.67px;"/><path d="M848.874,976.452l75.69,103.518l-60.914,46.778l50.343,111.624l-146.781,72.29" style="fill:none;stroke:#000;stroke-width:16.67px;"/><path d="M685.55,976.452l-75.689,103.518l60.914,46.778l-50.343,111.624l146.78,72.29" style="fill:none;stroke:#000;stroke-width:16.67px;"/></g><g><path d="M1434.74,1053.43c19.223,-0 34.806,15.583 34.806,34.805c-0,75.837 -0,255.249 -0,331.085c-0,19.223 -15.583,34.806 -34.806,34.806c-110.888,-0 -455.087,-0 -565.976,-0c-19.222,-0 -34.805,-15.583 -34.805,-34.806c-0,-75.836 -0,-255.248 -0,-331.085c-0,-19.222 15.583,-34.805 34.805,-34.805c110.889,-0 455.088,-0 565.976,-0Z" style="fill:#dff1fd;stroke:#000;stroke-width:16.67px;"/><rect x="833.957" y="1136.33" width="635.587" height="63.559" style="fill:#15649f;stroke:#000;stroke-width:16.67px;"/><circle cx="1287" cy="1358.79" r="47.669" style="fill:none;stroke:#000;stroke-width:16.67px;"/><circle cx="1358.32" cy="1358.79" r="47.669" style="fill:none;stroke:#000;stroke-width:16.67px;"/><path d="M897.515,1345.64l63.559,0" style="fill:none;stroke:#000;stroke-width:16.67px;"/><path d="M897.515,1374.67l63.559,0" style="fill:none;stroke:#000;stroke-width:16.67px;"/><path d="M985.081,1345.64l119,0" style="fill:none;stroke:#000;stroke-width:16.67px;"/><path d="M985.081,1374.67l59.5,0" style="fill:none;stroke:#000;stroke-width:16.67px;"/></g></svg>